<svg width="15" height="15" viewBox="0 0 15 15"  fill="#132639" xmlns="http://www.w3.org/2000/svg">
<path fill-rule="evenodd" clip-rule="evenodd" d="M6 0.500122C6 0.776264 6.22386 1.00012 6.5 1.00012H3H1V3.00012V4.00012V6.00012H2V11.0001C2 13.2093 3.79086 15.0001 6 15.0001H9C11.2091 15.0001 13 13.2093 13 11.0001V6.00012H14V4.00012V3.00012V1.00012H12H8.5C8.77614 1.00012 9 0.776264 9 0.500122C9 0.22398 8.77614 0.00012207 8.5 0.00012207H6.5C6.22386 0.00012207 6 0.22398 6 0.500122ZM3 4.00012V3.00012H12V4.00012H11H4H3ZM4 6.00012H11V11.0001C11 12.1047 10.1046 13.0001 9 13.0001H6C4.89543 13.0001 4 12.1047 4 11.0001V6.00012Z"/>
</svg>
