<svg width="12" height="3" viewBox="0 0 12 3" fill="black" xmlns="http://www.w3.org/2000/svg">
<path d="M1.59123 2.075C1.32123 2.075 1.09623 1.985 0.916231 1.805C0.72123 1.625 0.631231 1.385 0.631231 1.115C0.631231 0.845 0.72123 0.62 0.916231 0.44C1.09623 0.26 1.32123 0.155 1.59123 0.155C1.84623 0.155 2.07123 0.26 2.26623 0.44C2.44623 0.62 2.55123 0.845 2.55123 1.115C2.55123 1.385 2.44623 1.625 2.26623 1.805C2.07123 1.985 1.84623 2.075 1.59123 2.075ZM6.00041 2.075C5.73041 2.075 5.50541 1.985 5.32541 1.805C5.13041 1.625 5.04041 1.385 5.04041 1.115C5.04041 0.845 5.13041 0.62 5.32541 0.44C5.50541 0.26 5.73041 0.155 6.00041 0.155C6.25541 0.155 6.48041 0.26 6.67541 0.44C6.85541 0.62 6.96041 0.845 6.96041 1.115C6.96041 1.385 6.85541 1.625 6.67541 1.805C6.48041 1.985 6.25541 2.075 6.00041 2.075ZM10.4096 2.075C10.1396 2.075 9.91459 1.985 9.73459 1.805C9.53959 1.625 9.44959 1.385 9.44959 1.115C9.44959 0.845 9.53959 0.62 9.73459 0.44C9.91459 0.26 10.1396 0.155 10.4096 0.155C10.6646 0.155 10.8896 0.26 11.0846 0.44C11.2646 0.62 11.3696 0.845 11.3696 1.115C11.3696 1.385 11.2646 1.625 11.0846 1.805C10.8896 1.985 10.6646 2.075 10.4096 2.075Z"/>
</svg>
