<svg width="25" height="25" viewBox="0 0 25 25" fill="#999999" xmlns="http://www.w3.org/2000/svg">
<path fill-rule="evenodd" clip-rule="evenodd" d="M7.34311 18.1564C6.3668 17.1801 6.3668 15.5972 7.34311 14.6209L10.1715 11.7925C11.1479 10.8162 12.7308 10.8162 13.7071 11.7925C13.9968 12.0822 14.2005 12.4254 14.3183 12.7902L15.2731 12.4921C15.1087 11.9776 14.8224 11.4936 14.4142 11.0854C13.0473 9.71854 10.8313 9.71854 9.46443 11.0854L6.63601 13.9138C5.26917 15.2806 5.26917 17.4967 6.63601 18.8635C8.00284 20.2304 10.2189 20.2304 11.5858 18.8635L14.061 16.3883L12.6468 16.3883L10.8786 18.1564C9.90234 19.1328 8.31942 19.1328 7.34311 18.1564Z" />
<path fill-rule="evenodd" clip-rule="evenodd" d="M18.6569 6.84356C19.6332 7.81987 19.6332 9.40278 18.6569 10.3791L15.8285 13.2075C14.8522 14.1838 13.2692 14.1838 12.2929 13.2075C12.0032 12.9178 11.7995 12.5746 11.6817 12.2098L10.7269 12.5079C10.8913 13.0224 11.1776 13.5064 11.5858 13.9146C12.9527 15.2815 15.1687 15.2815 16.5356 13.9146L19.364 11.0862C20.7308 9.71937 20.7308 7.50329 19.364 6.13645C17.9972 4.76962 15.7811 4.76962 14.4142 6.13645L11.939 8.61167L13.3532 8.61167L15.1214 6.84356C16.0977 5.86725 17.6806 5.86725 18.6569 6.84356Z" />
</svg>
